<svg width="1100" height="123" viewBox="0 0 1100 123" fill="none" xmlns="http://www.w3.org/2000/svg">
<g clip-path="url(#clip0)">
<path d="M228.5 64C229.881 64 231 62.8807 231 61.5C231 60.1193 229.881 59 228.5 59C227.119 59 226 60.1193 226 61.5C226 62.8807 227.119 64 228.5 64Z" fill="#97B1A8" fill-opacity="0.4"/>
<path d="M38.5 64C39.8807 64 41 62.8807 41 61.5C41 60.1193 39.8807 59 38.5 59C37.1193 59 36 60.1193 36 61.5C36 62.8807 37.1193 64 38.5 64Z" fill="#97B1A8" fill-opacity="0.4"/>
<path d="M418.5 64C419.881 64 421 62.8807 421 61.5C421 60.1193 419.881 59 418.5 59C417.119 59 416 60.1193 416 61.5C416 62.8807 417.119 64 418.5 64Z" fill="#97B1A8" fill-opacity="0.4"/>
<path d="M608.5 64C609.881 64 611 62.8807 611 61.5C611 60.1193 609.881 59 608.5 59C607.119 59 606 60.1193 606 61.5C606 62.8807 607.119 64 608.5 64Z" fill="#97B1A8" fill-opacity="0.4"/>
<path d="M988.5 64C989.881 64 991 62.8807 991 61.5C991 60.1193 989.881 59 988.5 59C987.119 59 986 60.1193 986 61.5C986 62.8807 987.119 64 988.5 64Z" fill="#97B1A8" fill-opacity="0.4"/>
<path d="M798.5 64C799.881 64 801 62.8807 801 61.5C801 60.1193 799.881 59 798.5 59C797.119 59 796 60.1193 796 61.5C796 62.8807 797.119 64 798.5 64Z" fill="#97B1A8" fill-opacity="0.4"/>
</g>
<defs>
<clipPath id="clip0">
<rect width="1100" height="123" fill="white"/>
</clipPath>
</defs>
</svg>
