<svg width="75" height="75" viewBox="0 0 75 75" fill="none" xmlns="http://www.w3.org/2000/svg">
<path d="M67.5 50C68.8807 50 70 48.8807 70 47.5C70 46.1193 68.8807 45 67.5 45C66.1193 45 65 46.1193 65 47.5C65 48.8807 66.1193 50 67.5 50Z" fill="#97B1A8" fill-opacity="0.5"/>
<path d="M7.5 10C8.88071 10 10 8.88071 10 7.5C10 6.11929 8.88071 5 7.5 5C6.11929 5 5 6.11929 5 7.5C5 8.88071 6.11929 10 7.5 10Z" fill="#97B1A8" fill-opacity="0.5"/>
<path d="M7.5 70C8.88071 70 10 68.8807 10 67.5C10 66.1193 8.88071 65 7.5 65C6.11929 65 5 66.1193 5 67.5C5 68.8807 6.11929 70 7.5 70Z" fill="#97B1A8" fill-opacity="0.5"/>
<path d="M37.5 30C38.8807 30 40 28.8807 40 27.5C40 26.1193 38.8807 25 37.5 25C36.1193 25 35 26.1193 35 27.5C35 28.8807 36.1193 30 37.5 30Z" fill="#97B1A8" fill-opacity="0.5"/>
<path d="M7.5 30C8.88071 30 10 28.8807 10 27.5C10 26.1193 8.88071 25 7.5 25C6.11929 25 5 26.1193 5 27.5C5 28.8807 6.11929 30 7.5 30Z" fill="#97B1A8" fill-opacity="0.5"/>
<path d="M67.5 10C68.8807 10 70 8.88071 70 7.5C70 6.11929 68.8807 5 67.5 5C66.1193 5 65 6.11929 65 7.5C65 8.88071 66.1193 10 67.5 10Z" fill="#97B1A8" fill-opacity="0.5"/>
<path d="M67.5 70C68.8807 70 70 68.8807 70 67.5C70 66.1193 68.8807 65 67.5 65C66.1193 65 65 66.1193 65 67.5C65 68.8807 66.1193 70 67.5 70Z" fill="#97B1A8" fill-opacity="0.5"/>
<path d="M37.5 50C38.8807 50 40 48.8807 40 47.5C40 46.1193 38.8807 45 37.5 45C36.1193 45 35 46.1193 35 47.5C35 48.8807 36.1193 50 37.5 50Z" fill="#97B1A8" fill-opacity="0.5"/>
<path d="M37.5 10C38.8807 10 40 8.88071 40 7.5C40 6.11929 38.8807 5 37.5 5C36.1193 5 35 6.11929 35 7.5C35 8.88071 36.1193 10 37.5 10Z" fill="#97B1A8" fill-opacity="0.5"/>
<path d="M37.5 70C38.8807 70 40 68.8807 40 67.5C40 66.1193 38.8807 65 37.5 65C36.1193 65 35 66.1193 35 67.5C35 68.8807 36.1193 70 37.5 70Z" fill="#97B1A8" fill-opacity="0.5"/>
<path d="M7.5 50C8.88071 50 10 48.8807 10 47.5C10 46.1193 8.88071 45 7.5 45C6.11929 45 5 46.1193 5 47.5C5 48.8807 6.11929 50 7.5 50Z" fill="#97B1A8" fill-opacity="0.5"/>
<path d="M67.5 30C68.8807 30 70 28.8807 70 27.5C70 26.1193 68.8807 25 67.5 25C66.1193 25 65 26.1193 65 27.5C65 28.8807 66.1193 30 67.5 30Z" fill="#97B1A8" fill-opacity="0.5"/>
</svg>
